<?xml version="1.0" encoding="utf-8"?>
<!-- Generator: Adobe Illustrator 23.0.0, SVG Export Plug-In . SVG Version: 6.00 Build 0)  -->
<svg version="1.1" xmlns="http://www.w3.org/2000/svg" xmlns:xlink="http://www.w3.org/1999/xlink" x="0px" y="0px"
	 viewBox="0 0 500 500" style="enable-background:new 0 0 500 500;" xml:space="preserve">
<style type="text/css">
	.st0{fill:#5AE4A7;}
	.st1{opacity:0.7;fill:#FFFFFF;}
	
		.st2{fill:none;stroke:#1A2E35;stroke-width:1.1031;stroke-linecap:round;stroke-linejoin:round;stroke-miterlimit:10;stroke-dasharray:4.4124;}
	.st3{display:none;opacity:0.5;fill:#FFFFFF;}
	.st4{fill:#FFFFFF;stroke:#1A2E35;stroke-width:1.1031;stroke-linecap:round;stroke-linejoin:round;stroke-miterlimit:10;}
	.st5{fill:#1A2E35;}
	.st6{opacity:0.2;fill:#FFFFFF;}
	.st7{fill:#5AE4A7;stroke:#1A2E35;stroke-width:1.1031;stroke-miterlimit:10;}
	.st8{fill:none;stroke:#1A2E35;stroke-width:1.1031;stroke-miterlimit:10;}
	.st9{opacity:0.2;}
	.st10{fill:#FFFFFF;stroke:#1C1C1B;stroke-width:1.1031;stroke-miterlimit:10;}
	.st11{fill:#FFFFFF;}
	.st12{fill:none;stroke:#1A2E35;stroke-width:1.1031;stroke-linecap:round;stroke-linejoin:round;stroke-miterlimit:10;}
	.st13{opacity:0.5;fill:#FFFFFF;}
	.st14{fill:none;stroke:#1A2E35;stroke-width:2.2062;stroke-linecap:round;stroke-linejoin:round;stroke-miterlimit:10;}
	
		.st15{opacity:0.2;fill:none;stroke:#FFFFFF;stroke-width:1.1031;stroke-linecap:round;stroke-linejoin:round;stroke-miterlimit:10;}
	.st16{fill:none;stroke:#FFFFFF;stroke-width:1.1031;stroke-linecap:round;stroke-linejoin:round;stroke-miterlimit:10;}
</style>
<g id="Background_Simple">
	<g>
		<path class="st0" d="M456.55,209.11c-48.74-83.47-180.95-53.74-207.96-94.35c-13.83-20.79-29.3-44.89-51.73-57.42
			c-21.39-11.95-46.19-16.21-67.81-14.63C51.84,48.36,19.11,117.44,33.94,193.3c19.79,101.19,109.5,204.56,216.06,205.28
			c55.74,0.38,108.95-19.54,150.69-47.71c0.31-0.21,0.62-0.42,0.93-0.63C443.33,321.85,493.77,272.84,456.55,209.11z"/>
		<path class="st1" d="M456.55,209.11c-48.74-83.47-180.95-53.74-207.96-94.35c-13.83-20.79-29.3-44.89-51.73-57.42
			c-21.39-11.95-46.19-16.21-67.81-14.63C51.84,48.36,19.11,117.44,33.94,193.3c19.79,101.19,109.5,204.56,216.06,205.28
			c55.74,0.38,108.95-19.54,150.69-47.71c0.31-0.21,0.62-0.42,0.93-0.63C443.33,321.85,493.77,272.84,456.55,209.11z"/>
	</g>
</g>
<g id="Lines">
	<g>
		<path class="st2" d="M78.19,215.18h-5.42c-12.11,0-21.93,9.82-21.93,21.93v120.34c0,12.11,9.82,21.93,21.93,21.93h74.36
			c12.11,0,21.93-9.82,21.93-21.93l0,0"/>
		<path class="st2" d="M162.96,101.63V77.86c0-7.42,6.01-13.43,13.43-13.43h96.7c7.42,0,13.43,6.01,13.43,13.43l0,0"/>
	</g>
</g>
<g id="Shadow">
	<g>
		<ellipse class="st0" cx="250" cy="445.4" rx="191.52" ry="26.76"/>
		<ellipse class="st3" cx="250" cy="445.4" rx="191.52" ry="26.76"/>
	</g>
</g>
<g id="Window">
	<g>
		<path class="st4" d="M430.54,133.52v180.06c0,12.26-9.94,22.19-22.19,22.19H91.65c-12.26,0-22.19-9.94-22.19-22.19V133.52
			c0-0.53,0.02-1.05,0.07-1.57c0.79-11.53,10.4-20.64,22.13-20.64h316.69c11.73,0,21.33,9.11,22.13,20.64
			C430.52,132.48,430.54,132.99,430.54,133.52z"/>
		<path class="st5" d="M400.07,327.41H101.06c-11.49,0-20.8-9.31-20.8-20.8V140.28h340.61v166.33
			C420.87,318.09,411.56,327.41,400.07,327.41z"/>
		<path class="st6" d="M420.88,140.28v166.34c0,11.48-9.22,20.79-20.57,20.79H100.83c-11.35,0-20.57-9.31-20.57-20.79V140.28H420.88
			z"/>
		<path class="st7" d="M430.47,131.96H69.53c0.79-11.53,10.4-20.64,22.13-20.64h316.69C420.07,111.32,429.68,120.43,430.47,131.96z"
			/>
		<path class="st5" d="M113.88,121.64c0,2.17-1.76,3.93-3.93,3.93c-2.17,0-3.93-1.76-3.93-3.93c0-2.17,1.76-3.93,3.93-3.93
			C112.12,117.71,113.88,119.47,113.88,121.64z"/>
		<path class="st5" d="M130.5,121.64c0,2.17-1.76,3.93-3.93,3.93c-2.17,0-3.93-1.76-3.93-3.93c0-2.17,1.76-3.93,3.93-3.93
			C128.74,117.71,130.5,119.47,130.5,121.64z"/>
		<circle class="st5" cx="143.19" cy="121.64" r="3.93"/>
		<path class="st8" d="M420.87,140.28v166.33c0,11.48-9.31,20.8-20.8,20.8H101.06c-10.1,0-18.52-7.21-20.4-16.77l-0.01-0.01v-0.04
			c-0.25-1.29-0.39-2.63-0.39-3.98V140.28H420.87z"/>
		<path class="st5" d="M420.55,166.01c-1.46-0.82-3.01-1.46-4.62-1.91l-1.86-8.35h-7.94l-1.85,8.35c-1.62,0.44-3.18,1.09-4.63,1.91
			l-7.17-4.59l-5.61,5.61l4.51,7.17c-0.83,1.47-1.47,3.02-1.91,4.63l-8.35,1.85v7.94l8.35,1.86c0.44,1.63,1.08,3.2,1.91,4.67
			l-4.59,7.21l5.61,5.61l7.21-4.59c1.46,0.83,3.01,1.47,4.63,1.92l1.85,8.34h7.94l1.86-8.34c1.61-0.45,3.17-1.1,4.62-1.92l0.36,0.23
			V165.8L420.55,166.01z M410.11,194.96c-5.67,0-10.26-4.59-10.26-10.26c0-5.66,4.59-10.26,10.26-10.26
			c5.67,0,10.26,4.6,10.26,10.26C420.37,190.38,415.78,194.96,410.11,194.96z"/>
		<path class="st5" d="M277.45,174.05v-16.75l-17.61-3.9c-0.96-3.4-2.31-6.68-4.03-9.77l2.13-3.35h-83.1l2.05,3.27
			c-1.73,3.08-3.08,6.35-4.02,9.76l-17.61,3.92v16.74l17.61,3.93c0.94,3.43,2.28,6.74,4.02,9.84l-9.67,15.21l11.85,11.84l15.2-9.67
			c3.09,1.73,6.36,3.09,9.77,4.05l3.9,17.58h16.75l3.94-17.58c3.4-0.96,6.66-2.33,9.74-4.05l15.21,9.67l11.84-11.84l-9.61-15.21
			c1.71-3.09,3.07-6.35,4.03-9.75L277.45,174.05z M216.45,187.31c-11.95,0-21.63-9.69-21.63-21.63s9.69-21.63,21.63-21.63
			c11.95,0,21.63,9.69,21.63,21.63S228.4,187.31,216.45,187.31z"/>
		<path class="st5" d="M166.38,289.04l0.71-13.28l-13.77-3.88c-0.64-2.72-1.59-5.38-2.82-7.9l8.32-11.68l-8.91-9.89l-12.47,7.05
			c-2.38-1.49-4.92-2.71-7.59-3.63l-2.38-14.12l-13.28-0.71l-3.84,13.81c-2.74,0.61-5.38,1.56-7.9,2.8l-11.67-8.32l-9.91,8.91
			l7.06,12.48c-1.52,2.37-2.74,4.91-3.64,7.58l-4.03,0.66v17.99l2.92,0.83c0.62,2.75,1.57,5.41,2.82,7.92l-5.75,8.04l0.39,6.89v0.04
			l0.01,0.01l5.92,6.57l12.49-7.05c2.38,1.53,4.94,2.77,7.61,3.67l2.27,13.56v0.01l0.11,0.56l13.28,0.71l0.35-1.27v-0.01l3.49-12.53
			c2.76-0.62,5.41-1.56,7.94-2.8l11.65,8.31l9.91-8.9l-7.04-12.49c1.5-2.37,2.71-4.91,3.6-7.57L166.38,289.04z M131.11,268.29
			c-6.35-7.06-17.23-7.63-24.29-1.28c-7.06,6.35-7.63,17.23-1.28,24.29c6.35,7.06,17.23,7.62,24.29,1.27
			C136.89,286.21,137.46,275.35,131.11,268.29z"/>
		<path class="st5" d="M272.6,269.19c0.52-2.06,0.78-4.17,0.81-6.29l9.55-5.02l-2.64-9.69l-10.78,0.5c-1.09-1.82-2.39-3.5-3.87-5
			l3.19-10.31l-8.7-4.99l-7.28,7.95c-2.05-0.5-4.15-0.77-6.27-0.8l-5.04-9.56l-9.67,2.63l0.51,10.79c-1.82,1.09-3.5,2.39-5.01,3.87
			l-10.31-3.18l-4.99,8.69l7.99,7.26c-0.52,2.06-0.78,4.16-0.79,6.27l-9.57,5.04l2.64,9.69l10.79-0.51c1.08,1.82,2.37,3.5,3.86,5.01
			l-3.21,10.26l8.7,4.99l7.24-7.88c2.06,0.52,4.16,0.78,6.28,0.79l5.03,9.56l9.67-2.63l-0.42-9.22l-0.07-1.58
			c1.84-1.08,3.53-2.38,5.06-3.87l10.31,3.2l4.26-7.44l0.73-1.26L272.6,269.19z M249.73,275.07c-6.91,1.88-14.03-2.2-15.91-9.1
			c-1.88-6.91,2.2-14.03,9.1-15.91c6.91-1.88,14.03,2.2,15.91,9.1C260.71,266.08,256.63,273.2,249.73,275.07z"/>
		<path class="st5" d="M383.32,286.23l2.21-13.29l-13.46-5.42c-0.31-2.83-0.96-5.61-1.93-8.3l9.69-10.79l-7.84-10.96l-13.36,5.67
			c-2.22-1.78-4.63-3.28-7.21-4.48l-0.78-14.49l-13.3-2.2l-5.45,13.4c-2.82,0.33-5.59,0.98-8.26,1.94l-10.82-9.69l-10.95,7.84
			l5.68,13.35c-1.57,1.96-2.92,4.06-4.05,6.29c-0.15,0.31-0.31,0.62-0.45,0.93l-14.48,0.81l-2.21,13.28l2.18,0.88l11.27,4.54
			c0.31,2.81,0.95,5.59,1.93,8.26l-9.69,10.82l7.84,10.95l13.36-5.69c2.21,1.8,4.63,3.31,7.2,4.51l0.75,14.43l13.29,2.2l5.44-13.3
			c2.83-0.31,5.61-0.96,8.28-1.94l10.8,9.7l10.96-7.85l-5.68-13.36c1.81-2.22,3.34-4.66,4.56-7.25L383.32,286.23z M346.02,285.63
			c-7.82,5.59-18.7,3.79-24.29-4.03c-5.6-7.81-3.79-18.69,4.02-24.28c7.82-5.6,18.7-3.79,24.29,4.02
			C355.64,269.16,353.83,280.04,346.02,285.63z"/>
	</g>
</g>
<g id="Graphics">
	<g>
		<g>
			<path class="st7" d="M203.08,358.78H98.5c-7.24,0-13.11-5.87-13.11-13.11V200.88c0-7.24,5.87-13.11,13.11-13.11h104.58
				c7.24,0,13.11,5.87,13.11,13.11v144.79C216.19,352.91,210.32,358.78,203.08,358.78z"/>
			<path class="st9" d="M203.08,358.78H98.5c-7.24,0-13.11-5.87-13.11-13.11V200.88c0-7.24,5.87-13.11,13.11-13.11h104.58
				c7.24,0,13.11,5.87,13.11,13.11v144.79C216.19,352.91,210.32,358.78,203.08,358.78z"/>
			<g>
				<path class="st4" d="M228.36,213.8v144.79c0,7.25-5.87,13.12-13.12,13.12H110.67c-7.24,0-13.1-5.87-13.1-13.12V213.8
					c0-7.24,5.87-13.1,13.1-13.1h104.57C222.49,200.69,228.36,206.56,228.36,213.8z"/>
				<path class="st7" d="M228.36,213.8v7.75H97.57v-7.75c0-7.24,5.87-13.1,13.1-13.1h104.57
					C222.49,200.69,228.36,206.56,228.36,213.8z"/>
				<rect x="109.87" y="230.53" class="st0" width="32.18" height="5.4"/>
				<rect x="109.87" y="278.92" class="st0" width="32.18" height="5.4"/>
				<rect x="109.87" y="322.8" class="st0" width="32.18" height="5.4"/>
				<g>
					<rect x="109.87" y="243.9" class="st5" width="91.39" height="3.96"/>
					<rect x="109.87" y="251.47" class="st5" width="74.91" height="3.86"/>
					<rect x="109.87" y="258.92" class="st5" width="84.72" height="3.86"/>
					<rect x="109.87" y="266.36" class="st5" width="84.72" height="3.86"/>
				</g>
				<g>
					<rect x="109.87" y="287.78" class="st5" width="91.39" height="3.96"/>
					<rect x="109.87" y="295.35" class="st5" width="74.91" height="3.86"/>
					<rect x="109.87" y="302.8" class="st5" width="84.72" height="3.86"/>
				</g>
				<g>
					<rect x="109.87" y="335.96" class="st5" width="91.39" height="3.96"/>
					<rect x="109.87" y="343.54" class="st5" width="74.91" height="3.86"/>
					<rect x="109.87" y="350.99" class="st5" width="84.72" height="3.86"/>
				</g>
			</g>
		</g>
		<g>
			<path class="st10" d="M375.77,100.29v58.52c0,8.64-6.99,15.63-15.63,15.63H225.35c-8.63,0-15.63-6.99-15.63-15.63v-58.52
				c0-8.64,7-15.64,15.63-15.64h134.79C368.77,84.65,375.77,91.66,375.77,100.29z"/>
			<path class="st7" d="M375.77,100.29v1.33H209.71v-1.33c0-8.64,7-15.64,15.63-15.64h134.79
				C368.77,84.65,375.77,91.66,375.77,100.29z"/>
			<path class="st5" d="M234.11,95.94c-0.93,0.93-2.45,0.93-3.39,0c-0.93-0.93-0.93-2.45,0-3.39c0.93-0.93,2.45-0.93,3.39,0
				C235.04,93.49,235.04,95,234.11,95.94z"/>
			<path class="st5" d="M245.23,95.94c-0.93,0.93-2.45,0.93-3.39,0c-0.93-0.93-0.93-2.45,0-3.39c0.93-0.93,2.45-0.93,3.39,0
				C246.16,93.49,246.16,95,245.23,95.94z"/>
			<path class="st5" d="M256.35,95.94c-0.93,0.93-2.45,0.93-3.39,0c-0.93-0.93-0.93-2.45,0-3.39c0.93-0.93,2.45-0.93,3.39,0
				C257.28,93.49,257.28,95,256.35,95.94z"/>
			<rect x="220.3" y="112.39" class="st2" width="54.28" height="46.92"/>
			<g>
				<rect x="282.96" y="112.39" class="st5" width="62.47" height="3.3"/>
				<rect x="282.96" y="119.22" class="st5" width="47.92" height="3.29"/>
				<rect x="282.96" y="126.02" class="st5" width="71.35" height="3.33"/>
				<rect x="282.96" y="132.65" class="st5" width="60.76" height="3.33"/>
			</g>
		</g>
	</g>
</g>
<g id="Character">
	<g>
		<path class="st0" d="M296.86,440.47c0,0-29,8.32-33.05,9.75c-3.68,1.3-13.67,4.8-21.16,3.72c-0.74-0.11-1.46-0.26-2.14-0.46
			c-7.59-2.26-11-4.37-11.99-9.14c-1-4.79,2.78-8.28,6.42-10.53c3.64-2.25,23.39-4.6,23.39-4.6l4.77,1.4h0.01L296.86,440.47z"/>
		<path class="st11" d="M242.66,453.93c-0.74-0.11-1.46-0.26-2.14-0.46c-7.59-2.26-11-4.37-11.99-9.14c-1-4.79,2.78-8.28,6.42-10.53
			c3.64-2.25,23.39-4.6,23.39-4.6l4.77,1.4c-4.31,1.99-20.4,3.09-23.9,5.11c-3.51,2.02-5.21,5.82-3.13,10.96
			C237.16,449.4,240.12,452.05,242.66,453.93z"/>
		<path class="st12" d="M292.5,441.65c0,0-21.78,5.64-30.42,9.25c-8.64,3.61-25.11,5.19-30.98-2.26
			c-5.87-7.45-0.68-13.86,5.19-15.28s17.74-3.68,24.22-2.78"/>
		<path class="st12" d="M243.09,453.54c0,0-11.08-6.08-7.4-14.59c2.72-6.29,17.5-4.92,24.82-8.36"/>
		<path class="st0" d="M385.19,455.28c-0.3,2.97-1.35,5.81-4.35,7.58c-2,1.18-4.84,1.89-8.91,1.84c-10.17-0.13-29.29-7.4-29.29-7.4
			l-17.9-9.89l9.31-14.74l2.55-4.04l6.59,1.48c0,0,5.45,3.09,10.93,5.55c5.48,2.46,18.79,2.98,23.47,6.77
			C382.28,446.21,385.7,450.34,385.19,455.28z"/>
		<path class="st11" d="M385.19,455.28c-0.3,2.97-1.35,5.81-4.35,7.58c0.56-2.31,1.03-5.49-0.51-8.94
			c-1.99-4.49-8.5-8.45-17.07-9.11c-8.55-0.66-15.11-4.67-18.54-6.45c-2.68-1.39-8.33-4.42-10.68-5.69l2.55-4.04l6.59,1.48
			c0,0,5.45,3.09,10.93,5.55c5.48,2.46,18.79,2.98,23.47,6.77C382.28,446.21,385.7,450.34,385.19,455.28z"/>
		<path class="st12" d="M328.71,450.18c12.74,7.3,27.32,12.56,41.9,14.31c3.26,0.39,7.05,0.45,9.23-2c1.22-1.36,1.66-3.29,1.5-5.11
			c-0.4-4.6-4.26-8.24-8.5-10.06c-4.24-1.82-8.92-2.26-13.42-3.27c-4.48-1-8.83-2.6-12.9-4.72c-3.24-1.69-6.37-3.74-9.94-4.49
			c-3.57-0.76-7.82,0.16-9.73,3.27"/>
		<path class="st12" d="M378.64,463.74c3.29-1.69,6-4.8,6.55-8.46c0.65-4.33-1.82-8.69-5.29-11.35c-3.48-2.67-7.82-3.92-12.11-4.81
			c-4.29-0.89-8.67-1.49-12.76-3.08c-6.27-2.45-12.46-7.29-18.97-5.57"/>
		<path class="st0" d="M348.91,295.26l-30.29-11.53l-0.38-0.14c0,0,0.11-0.81,0.2-1.97c0.19-2.42,0.29-6.35-0.85-7.69
			c-1.69-1.97-6.48-0.32-11.14-2.46c-4.67-2.14-13.3,1.69-13.3,1.69s-6.23-1.15-8.98,3.35c-1.4,3.63-0.92,9.03-0.92,9.03
			s-0.2,0.08-0.57,0.21c-3.61,1.35-23.24,8.74-27.4,11.7c-4.59,3.25-9.66,36.62-11.3,46.42c-1.63,9.81-4.53,18.63-3.06,22.01
			c1.47,3.36,22.57,19.61,34.7,23.81c12.13,4.2,55.19,2.97,55.19,2.97s0.71-0.19,1.95-0.58c7.28-2.34,33.12-11.97,46.82-34.68
			C379.59,357.39,366.31,313.86,348.91,295.26z M267.07,351.39c-2.23,1.58-1.04,7.7-1.04,7.7l-3.79-3.34l9.52-23.41l4.06,17.97
			C275.82,350.31,269.3,349.82,267.07,351.39z M343.23,366.26c-1.05,0.54,3.01-10.71,1.08-13.26c-1.93-2.56-7.71-2.31-7.71-2.31
			l0.5-3.08c0.07-0.34,3.43-17.59,3.43-17.59l1.14-1.36c0,0,11.78,20.2,13.89,27.31C355.55,355.98,342.71,366.26,343.23,366.26z"/>
		<path class="st11" d="M291.72,222.25l-15.63,16.6c0,0-2.16,1.91-1.3,6.72c0.86,4.82,2.85,8.95,4.36,9.27
			c1.51,0.32,3.62,0.32,3.62,0.32s3.35,7.26,5.72,10.11c0,0,0.83,11.21,0.39,14.32c0,0,5.62,4.91,10.91,5.53
			c5.29,0.62,13.46-7.48,13.46-7.48l2.03-9.92c0,0,4.8-7.28,5.12-9.22c0.33-1.94,2.52-1.44,3.6-2.4c1.08-0.96,3.57-5.23,3.98-9.27
			c0.41-4.04,0.44-8.68-4.25-7.32c-4.07-1.09-1.52-9.69-1.52-9.69l-7.15-6.31L291.72,222.25z"/>
		<path class="st13" d="M318.62,283.74c-0.24,0.64-0.51,1.25-0.81,1.81c-2.58,4.86-13.82,14.13-13.82,14.13l-3.4-10.45l-1.86,10.45
			c-3.75-1.63-15.19-11.55-15.19-11.55s-0.39-0.93-0.86-2.37c0.38-0.13,0.57-0.21,0.57-0.21s-0.49-5.41,0.92-9.03
			c2.75-4.5,8.98-3.35,8.98-3.35s8.64-3.83,13.3-1.69c4.67,2.14,9.45,0.49,11.14,2.46c1.69,1.97,0.65,9.66,0.65,9.66L318.62,283.74z
			"/>
		<path class="st9" d="M348.91,295.26l-30.29-11.53l-0.38-0.14c0,0,0.11-0.81,0.2-1.97l-0.63,3.93l-4.48,6.09
			c0,0,7.57,2.73,13.98,6.16c4.45,2.38,7.01,7.23,6.42,12.24l-5.58,47.75l-2.28,27.11l6.91,7.17c7.28-2.34,33.12-11.97,46.82-34.68
			C379.59,357.39,366.31,313.86,348.91,295.26z M343.23,366.26c-1.05,0.54,3.01-10.71,1.08-13.26c-1.93-2.56-7.71-2.31-7.71-2.31
			l0.5-3.08c0.07-0.34,3.43-17.59,3.43-17.59l1.14-1.36c0,0,11.78,20.2,13.89,27.31C355.55,355.98,342.71,366.26,343.23,366.26z"/>
		<path class="st9" d="M277.87,353l-4.71-15.74c0,0-8.45-28.8-14.24-35.91l1.52,20.26c0,0-4.97,24.2-9.57,31.39
			c-4.6,7.18-5.59,8.98,0,8.98c5.6,0,19.19,10.84,19.19,10.84l-1.05-9.05L277.87,353z M266.03,359.09l-3.79-3.34l9.52-23.41
			l4.06,17.97c0,0-6.52-0.49-8.75,1.08C264.84,352.97,266.03,359.09,266.03,359.09z"/>
		<path class="st12" d="M288.48,265.28c0,0,0.87,8.49,0,12.37"/>
		<path class="st12" d="M314.11,276.51c0,0-0.05-4.14,0.95-8.11"/>
		<path class="st12" d="M316.38,228.58c0,0,5.14,6.45,4.87,11.32c-0.26,4.87-0.66,10.67-0.53,16.33
			c0.13,5.66-9.09,17.51-13.83,18.57c-4.74,1.05-8.82,1.32-11.85-1.71c-3.03-3.03-6.06-7.24-10.01-12.64
			c-3.95-5.4-3.03-17.25-3.03-17.25"/>
		<path class="st12" d="M304.02,247.71c-0.31,1.77-0.45,3.57-0.4,5.37c0.04,1.5,0.26,3.13,1.32,4.2c0.57,0.58,1.39,1.04,1.5,1.85
			c0.1,0.71-0.45,1.36-1.05,1.75c-0.61,0.39-1.31,0.63-1.85,1.1"/>
		<path class="st12" d="M295.87,262.6c0,0,0.59,3.83,5.73,4.63"/>
		<path class="st5" d="M296.4,250.63c0,1.11-0.48,2-1.07,2c-0.59,0-1.07-0.9-1.07-2c0-1.11,0.48-2,1.07-2
			C295.92,248.63,296.4,249.53,296.4,250.63z"/>
		<path class="st5" d="M311.71,251.11c0,1.11-0.48,2-1.07,2c-0.59,0-1.07-0.9-1.07-2c0-1.11,0.48-2,1.07-2
			C311.23,249.11,311.71,250.01,311.71,251.11z"/>
		<path class="st14" d="M308.62,246.26c0,0,4.98-4.98,9.19,0.57"/>
		<path class="st14" d="M298.09,246.36c0,0-3.16-3.54-8.14,0"/>
		<path class="st5" d="M288.87,269.95c0,0,3.05,8.4,9.86,10.79c6.81,2.38,15.85-9.99,15.85-9.99l-0.47-1.61c0,0-5.92,7.7-12.52,6.38
			c-6.59-1.31-13.11-10.24-13.11-10.24L288.87,269.95z"/>
		<path class="st12" d="M282.76,254.85c0,0-4.06,1.43-5.14-1.73c-1.08-3.16-4.78-11.49-1.54-14.26c3.24-2.78,5.84,3.66,5.84,3.66"/>
		<path class="st12" d="M320.72,256.57c0,0,3.77,0.76,4.85-2.4c1.08-3.16,4.78-11.49,1.54-14.26c-3.24-2.78-5.84,3.66-5.84,3.66"/>
		<path class="st5" d="M281.92,250.63c1.12-0.05,2.97-1.15,3.56-2.1c0.59-0.96,0.84-2.08,1.04-3.19c0.37-2.12,0.56-4.28,0.56-6.43
			c0-0.84-0.02-1.7,0.23-2.51c0.26-0.84,0.79-1.56,1.36-2.23c1.42-1.66,3.12-3.06,4.47-4.78c1.35-1.72,2.34-3.89,1.97-6.04
			c0,0,9.2,8.41,22.47,5.81c7.14-1.4,14-7.67,13.17-15.55c-0.3-2.8-2.36-4.82-5.03-5.49c-3.53-0.88-6.7,1-9.9,2.21
			c-5.83,2.2-11.54-1.58-17.43-2.21c-5.04-0.54-11.23,0.08-13.85,5.09c0,0-9.05,1.06-13.02,8.5c-3.97,7.43,3.57,17.73,3.57,17.73
			s3.03-3.67,6.93,3.76L281.92,250.63z"/>
		<path class="st5" d="M316.95,226.68c0,0-2.34,12.2,3.77,18.11c0,0,1.34-3.67,2.69-4.56c0,0,3.4-6.45-1.07-13.54
			C317.87,219.58,316.95,226.68,316.95,226.68z"/>
		<path class="st15" d="M328.14,212.8c-0.9,3.36-3.75,5.96-6.97,7.28c-8.48,3.45-16.72-0.38-25.21-1.13
			c-6.94-0.61-14.59,5.64-15.07,12.76"/>
		<path class="st15" d="M275.63,229.83c0.13-5.61,3.83-10.98,9.03-13.08"/>
		<path class="st12" d="M286.53,276.51c0,0,5.59,6.16,13.21,9.03c0,0,10.15-2.94,15.32-10.02"/>
		
			<ellipse transform="matrix(0.909 -0.4169 0.4169 0.909 -77.7934 145.0154)" class="st12" cx="293.15" cy="250.63" rx="8.98" ry="8.98"/>
		
			<ellipse transform="matrix(0.9925 -0.1219 0.1219 0.9925 -28.2199 40.0562)" class="st12" cx="313.22" cy="250.63" rx="8.98" ry="8.98"/>
		<path class="st12" d="M288.48,273.16c0,0-2.73,0.55-4.32,3.35c-1.59,2.8-0.63,11.61-0.63,11.61s8.21,8.12,15.2,11.55l2.06-11.59
			l3.2,11.59c0,0,10.82-7.65,13.82-14.12c0,0,0.98-7.54,0-10.02s-3.23-2.36-3.23-2.36"/>
		<path class="st12" d="M275.63,350.7c0,0-3.2-21.5-7.47-30.27"/>
		<path class="st12" d="M258.92,301.35c0,0,4.06,5.68,6.64,11.11"/>
		<path class="st12" d="M343.23,317.4c1.13-4.28,2.33-8.04,3.53-10.49"/>
		<path class="st12" d="M336.6,350.7c0,0,2.31-14.74,5.07-26.88"/>
		<path class="st12" d="M340.52,330.02c2.2-2.94,5.4-5.13,8.94-6.11"/>
		<path class="st12" d="M318.25,283.59c0,0,18.64,7.44,30.67,11.67c0,0,14.8,13.92,30.67,62.13c0,0-14.55,24.46-42.2,32.3"/>
		<path class="st12" d="M342.18,367.13l13.36-11.16c0,0,7.07-5.37,14.42-1.7"/>
		<path class="st12" d="M341.67,328.67c0,0,11.05,16.28,13.88,27.31"/>
		<path class="st12" d="M266.15,359.71l-3.91-3.73c0,0-5.81-1.01-12.38,3.39"/>
		<path class="st12" d="M262.24,355.98c0,0,4.86-15.95,9.65-24.19"/>
		<path class="st12" d="M283.25,285.55c0,0-26.81,10.06-29.44,12.99c-2.63,2.93-12.62,59.2-12.88,65.64
			c-0.24,5.76,20.65,18.69,30.96,24.14"/>
		<path class="st4" d="M380.31,276.51h-30.55c-3.61,0-6.53-2.92-6.53-6.53v-17.92c0-3.61,2.92-6.53,6.53-6.53h30.55
			c3.61,0,6.53,2.92,6.53,6.53v17.92C386.84,273.59,383.92,276.51,380.31,276.51z"/>
		<polyline class="st12" points="357.3,254.85 348.91,260.11 356.7,267.01 		"/>
		<polyline class="st12" points="372.58,267.52 380.12,261.09 371.42,255.39 		"/>
		<line class="st12" x1="361.38" y1="271.47" x2="367.57" y2="252.05"/>
		<path class="st5" d="M303.3,304.56c0,0.97-0.79,1.76-1.76,1.76c-0.97,0-1.76-0.79-1.76-1.76c0-0.97,0.79-1.76,1.76-1.76
			C302.51,302.79,303.3,303.58,303.3,304.56z"/>
		<g>
			<path class="st5" d="M334.32,398.78H273.3c-0.79,0-1.43-0.64-1.43-1.43l0,0c0-0.79,0.64-1.43,1.43-1.43h61.02
				c0.79,0,1.43,0.64,1.43,1.43l0,0C335.75,398.14,335.11,398.78,334.32,398.78z"/>
			<path class="st4" d="M336.46,394.03l8.18-38.4c0.54-2.54-1.4-4.94-4-4.94h-71.29c-2.57,0-4.51,2.35-4.01,4.88l7.33,37.12
				c0.37,1.88,2,3.25,3.92,3.29l55.78,1.28C334.33,397.31,336.05,395.95,336.46,394.03z"/>
			<path class="st5" d="M310.44,372.83c0,3.14-2.55,5.69-5.69,5.69s-5.69-2.55-5.69-5.69c0-3.14,2.55-5.69,5.69-5.69
				S310.44,369.68,310.44,372.83z"/>
			<line class="st12" x1="321.63" y1="354.34" x2="330.1" y2="354.34"/>
			<line class="st12" x1="281.18" y1="354.34" x2="313.33" y2="354.34"/>
		</g>
		<path class="st5" d="M336.6,434.77l-6.5,17.06c0,0-16.57-4.18-37.81-8.53c-22.2-4.55-45.39-10.44-57.42-31.54
			c-1.47-2.57-2.44-5.61-1.76-8.49c1.74-7.29,11.22-9.27,17.47-10c3.92-0.46,7.88-0.61,11.83-0.67c2.01-0.03,8.65-1.08,10.26,0.1
			c0,0,4.17,3.07,7.72,4.57c3.55,1.51,55.37-1.35,55.37-1.35s1.54-3.25,1.63-6.22c8.15-4.14,27.01-7.65,34.98-6.1
			c12.53,2.44,19.84,9.75,18.45,17.41C389.41,408.66,361.76,429.2,336.6,434.77z"/>
		<path class="st16" d="M336.6,434.77c0,0-15.76-4.18-28.64-12.88c-12.88-8.7-22.94-18.8-40.89-16.71"/>
		<path class="st16" d="M304.99,419.84c8.14-2.34,14.11-7.6,20.64-12.66c6.92-5.35,14.23-10.54,22.09-14.52"/>
		<line class="st12" x1="302.13" y1="252.05" x2="304.52" y2="252.05"/>
	</g>
</g>
</svg>
